<?xml version="1.0" standalone="no"?>
<!DOCTYPE svg PUBLIC "-//W3C//DTD SVG 20010904//EN"
 "http://www.w3.org/TR/2001/REC-SVG-20010904/DTD/svg10.dtd">
<svg version="1.0" xmlns="http://www.w3.org/2000/svg"
 width="1027.000000pt" height="644.000000pt" viewBox="0 0 1027.000000 644.000000"
 preserveAspectRatio="xMidYMid meet">
<metadata>
Created by potrace 1.16, written by Peter Selinger 2001-2019
</metadata>
<g transform="translate(0.000000,644.000000) scale(0.100000,-0.100000)"
fill="#000000" stroke="none">
<path d="M17 4354 c-4 -1144 -7 -2584 -7 -3200 l0 -1122 2743 -6 c1508 -3
3812 -9 5120 -12 l2377 -6 0 1429 c0 786 3 2226 7 3200 l6 1771 -2754 6
c-1515 3 -3819 9 -5120 12 l-2366 6 -6 -2078z m5665 107 c45 -53 70 -135 76
-254 6 -122 -8 -187 -54 -257 -19 -29 -33 -54 -32 -55 2 -2 42 15 89 36 48 21
101 42 119 46 l33 6 -6 -44 c-4 -24 -10 -54 -13 -66 -8 -30 6 -30 92 3 145 55
627 213 635 209 4 -3 1 -27 -6 -53 -18 -58 -19 -72 -2 -72 7 0 76 18 152 40
77 22 145 40 151 40 8 0 3 -42 -15 -127 l-26 -128 -175 -46 -175 -45 -16 -75
c-29 -134 -109 -485 -120 -522 -7 -25 -19 -42 -40 -53 -50 -25 -178 -54 -244
-54 -48 0 -73 -6 -106 -24 -24 -14 -77 -34 -118 -45 -79 -22 -94 -32 -301
-201 -58 -48 -188 -151 -290 -230 -102 -80 -214 -168 -249 -197 -36 -29 -71
-53 -78 -53 -8 0 -43 14 -78 30 -35 17 -68 30 -72 30 -9 -1 -88 -172 -99 -214
-11 -43 -21 -30 -26 37 -5 56 -38 247 -44 255 -4 5 -331 -174 -445 -244 -50
-30 -94 -53 -96 -50 -3 2 20 35 50 73 89 111 169 227 159 231 -11 3 -276 -104
-354 -144 -28 -14 -52 -23 -54 -21 -3 2 73 75 167 162 144 133 169 160 153
166 -53 21 -181 -1 -507 -87 -136 -37 -251 -64 -253 -61 -3 3 5 52 19 109 14
57 42 181 63 276 38 170 38 174 19 184 -51 28 -113 104 -129 157 -56 190 52
391 271 504 145 74 282 113 570 161 196 33 654 142 664 158 4 6 15 55 25 107
10 53 19 98 20 100 3 4 105 -73 205 -156 43 -35 79 -63 82 -63 2 0 8 32 11 70
5 43 12 70 19 70 8 0 12 21 13 60 2 67 7 77 97 188 66 81 179 172 214 172 13
0 35 -16 55 -39z"/>
<path d="M5577 4430 c-51 -34 -93 -80 -110 -120 -6 -14 -31 -43 -55 -65 -48
-44 -61 -82 -62 -185 0 -54 -24 -168 -38 -182 -9 -8 -132 66 -209 126 -31 25
-60 43 -65 40 -5 -3 -18 -24 -29 -46 -17 -33 -18 -42 -7 -49 19 -13 29 -11 50
7 17 16 22 15 80 -21 135 -83 163 -104 145 -111 -11 -4 -53 15 -119 55 -55 33
-105 58 -109 55 -5 -3 -9 -14 -9 -24 0 -14 -10 -21 -37 -26 -69 -11 -366 -75
-468 -100 -55 -13 -183 -38 -285 -54 -462 -73 -676 -189 -749 -408 -27 -80
-26 -135 3 -198 25 -54 71 -96 125 -115 26 -9 32 -16 28 -33 -3 -11 -28 -119
-56 -239 -28 -119 -51 -224 -51 -232 0 -23 21 -19 217 35 100 28 188 50 197
50 10 0 23 15 32 35 11 27 20 35 39 35 19 0 25 -5 25 -23 0 -22 1 -22 78 -13
78 9 80 9 135 -23 57 -32 69 -47 45 -53 -17 -4 -124 -118 -112 -118 5 0 25 13
44 28 19 16 45 34 57 40 44 24 133 8 133 -24 0 -9 -36 -61 -80 -117 -44 -55
-79 -102 -77 -104 2 -2 35 18 73 43 80 54 219 124 247 124 10 0 38 -5 62 -11
l44 -11 6 -57 c10 -93 19 -102 35 -36 7 31 19 59 26 62 6 2 42 -10 79 -26 37
-17 77 -31 89 -31 11 0 73 41 136 91 63 50 151 119 195 152 44 34 172 136 285
227 113 91 211 170 218 174 7 4 43 14 79 22 36 7 90 27 119 44 47 26 64 30
129 30 86 0 177 27 211 63 21 22 37 84 120 467 36 167 42 186 50 178 2 -3 80
13 172 36 l166 42 12 57 c6 31 10 58 8 60 -2 2 -77 -16 -166 -39 -89 -24 -164
-42 -166 -39 -3 3 2 30 11 62 9 31 15 59 12 61 -2 2 -167 -51 -365 -118 -199
-67 -364 -120 -366 -117 -2 2 9 28 26 58 33 61 38 89 14 89 -33 0 -204 -85
-199 -98 4 -10 -1 -11 -18 -6 -46 14 -42 41 25 154 69 119 83 156 70 186 -7
14 -12 49 -12 78 0 106 -37 227 -71 234 -8 1 -36 -11 -62 -28z m-77 -240 c15
-37 9 -55 -27 -72 -23 -11 -29 -22 -34 -58 -3 -25 -10 -56 -16 -70 -6 -14 -16
-51 -23 -82 -12 -61 -49 -123 -50 -83 0 11 10 63 21 115 11 52 24 130 28 172
9 87 21 108 61 108 21 0 30 -7 40 -30z m880 -317 c0 -5 -7 -33 -15 -63 -8 -30
-15 -56 -15 -57 0 -2 9 -3 20 -3 31 0 25 -37 -8 -54 -23 -12 -31 -26 -41 -73
-7 -32 -26 -114 -43 -181 -22 -91 -27 -127 -19 -135 26 -26 4 -98 -34 -115
-71 -33 -140 -21 -157 26 l-11 28 -51 -51 c-100 -100 -229 -134 -289 -77 -21
19 -31 23 -34 14 -21 -58 -121 -118 -178 -108 -67 13 -73 41 -49 222 6 46 4
53 -14 63 -41 22 -60 -11 -102 -178 -22 -84 -41 -154 -42 -155 -2 -1 -32 -7
-68 -14 -36 -6 -76 -14 -89 -18 -23 -7 -24 -6 -17 31 l7 37 -30 -35 c-41 -46
-121 -80 -193 -81 -52 -1 -61 2 -90 32 -32 31 -33 35 -36 127 -2 52 -6 95 -9
95 -19 0 -43 -26 -54 -57 -69 -214 -239 -345 -374 -289 -51 22 -58 43 -46 142
26 212 126 370 271 425 120 46 180 5 180 -124 0 -36 1 -37 28 -31 15 4 28 11
30 15 2 4 25 39 53 78 100 143 249 212 314 146 16 -15 25 -36 25 -54 0 -34
-35 -78 -65 -83 -16 -2 -21 4 -25 39 -8 54 -14 59 -44 40 -46 -31 -116 -221
-116 -318 0 -74 64 -84 164 -26 45 26 50 39 140 387 l53 205 78 28 c43 15 80
26 82 24 2 -2 -13 -68 -32 -147 -20 -78 -34 -145 -31 -147 5 -5 48 26 220 161
54 42 101 75 103 72 23 -22 -65 -118 -156 -172 -38 -23 -39 -30 -2 -48 49 -26
64 -74 56 -177 -4 -49 -4 -89 -1 -89 4 0 20 7 36 15 21 11 30 23 30 41 0 52
34 171 67 237 64 127 166 202 276 202 90 0 107 -36 63 -132 -31 -66 -87 -121
-170 -168 -63 -35 -66 -39 -66 -73 0 -50 12 -65 50 -64 35 1 88 34 139 86 28
29 40 58 77 188 45 160 50 188 34 188 -17 0 -11 17 9 23 13 3 22 21 31 58 7
30 16 60 20 68 4 8 38 24 76 36 80 27 84 27 84 18z m-2138 -243 c20 -6 50 -26
67 -46 27 -30 31 -42 31 -94 0 -100 -63 -229 -136 -280 -41 -27 -42 -33 -8
-50 49 -27 56 -58 39 -165 -20 -127 -20 -126 13 -123 24 3 27 0 25 -27 -4 -59
-98 -111 -162 -89 -39 13 -61 68 -51 124 4 25 14 78 21 118 12 69 12 73 -7 93
-24 23 -70 18 -78 -9 -3 -10 -26 -98 -52 -197 -26 -99 -53 -185 -60 -190 -14
-13 -153 -50 -159 -43 -11 11 105 484 166 672 39 123 41 126 77 142 58 24 132
47 137 42 3 -2 -15 -76 -39 -164 -24 -87 -40 -160 -35 -162 13 -5 83 35 111
65 39 41 79 136 85 202 5 54 3 60 -25 92 -28 32 -34 34 -89 32 -121 -3 -267
-85 -340 -191 -52 -76 -67 -125 -67 -219 0 -40 -4 -73 -9 -73 -43 0 -107 72
-107 121 0 86 77 216 172 288 65 49 181 107 251 126 62 16 177 19 229 5z m998
-769 c0 -12 -37 -65 -98 -140 -29 -36 -52 -69 -52 -74 0 -5 27 -6 62 -2 55 7
61 6 50 -8 -31 -38 -200 -84 -216 -59 -6 10 84 144 132 194 14 15 23 30 20 33
-3 3 -25 1 -49 -4 -61 -14 -79 -13 -79 4 0 15 5 17 130 46 89 21 100 22 100
10z m-326 -68 c8 -30 29 -233 24 -238 -2 -3 -15 -6 -28 -7 -20 -3 -24 3 -35
50 -7 29 -14 54 -16 56 -2 2 -19 -1 -36 -6 -32 -8 -33 -10 -33 -62 0 -47 -3
-54 -22 -59 -29 -8 -34 2 -42 82 -4 36 -9 87 -13 114 l-6 47 32 0 c28 0 31 -3
37 -40 7 -43 7 -43 53 -34 30 6 32 10 31 43 -3 54 -1 59 18 64 29 8 31 7 36
-10z"/>
<path d="M4567 3281 c-39 -43 -71 -121 -94 -227 -20 -88 -13 -124 23 -124 36
0 77 45 103 113 22 60 21 77 -5 77 -24 0 -16 47 12 69 15 12 33 21 40 21 16 0
19 46 4 84 -14 37 -42 32 -83 -13z"/>
</g>
</svg>
